<?xml version="1.0" encoding="utf-8"?>
<!-- Generator: Adobe Illustrator 16.0.0, SVG Export Plug-In . SVG Version: 6.00 Build 0)  -->
<!DOCTYPE svg PUBLIC "-//W3C//DTD SVG 1.1//EN" "http://www.w3.org/Graphics/SVG/1.1/DTD/svg11.dtd">
<svg version="1.1" id="Layer_1" xmlns="http://www.w3.org/2000/svg" xmlns:xlink="http://www.w3.org/1999/xlink" x="0px" y="0px"
	 width="389.369px" height="389.385px" viewBox="0 113.018 389.369 389.385" enable-background="new 0 113.018 389.369 389.385"
	 xml:space="preserve">
<g>
	<circle fill="#1EA489" cx="194.708" cy="307.727" r="185.524"/>
	<g>
		<path fill="#FFFFFF" d="M168.725,372.153c-12.495-1.094-12.888-11.311-21.909-13.13c-2.969-0.603-11.258,0.199-11.258,7.164
			c0,5.966,10.243,25.064,30.803,25.064c26.669,0,33.224-22.375,35.251-33.125c0,0-0.18,29.86,0.409,40.653
			c1.222,22.021,5.908,22.909,19.629,18.141c10.778-3.744,11.607-21.658,14.029-22.447c3.309-1.067,4.25,13.832,12.795,8.12
			c9.23-6.162,6.612-35.263,9.145-35.263c2.407,0,3.536,10.342,11.087,9.304c4.109-0.566,6.027-6.362,7.799-11.149
			c7.459-20.488,8.444-40.386-1.227-66.352c-2.729-7.3-5.035-16.21-5.235-11.339c-0.082,1.913,1.661,46.042,1.184,53.682
			c-0.477,7.646-10.185,9.555-10.185,0.96c0-10.035-0.381-71.954-0.381-71.954c0.096-2.378-10.092-16.309-10.618-13.819
			c-0.881,4.183,3.171,93.57-1.63,97.228c-5.428,4.138-8.963-1.28-9.384-4.009c-1.956-12.708,1.292-107.062-0.1-109.483
			c-1.618-2.845-12.213-17.382-12.874-12.245c-0.268,2.071,1.759,146.115,1.689,152.178c-0.211,17.792-14.428,19.885-15.115,10.992
			c-0.731-9.598-2.854-29.342-3.672-61.775c-1.817-71.928,3.571-111.076,2.238-117.449c-1.1-5.177-13.652-17.041-16.593-17.408
			c-1.573-0.211-14.913,11.738-17.377,17.703c-1.831,4.405,13.199,31.127,16.195,54.519c2.307,18.039,4.065,37.784,3.551,47.351
			c-0.09,1.658-0.933,23.643-4.747,32.619C188.006,356.887,182.358,373.352,168.725,372.153z"/>
		<path fill="#FFFFFF" d="M191.832,329.18c-6.52-47.748-36.013-93.946-39.827-91.527c-2.041,1.296-16.447,19.206-15.76,21.588
			c1.548,5.363,33.073,10.262,49.567,72.811C187.399,338.128,192.957,337.412,191.832,329.18z"/>
		<path fill="#FFFFFF" d="M111.465,309.478c-0.225,3.886,10.299,5.528,11.653-3.574c1.872-12.737,36.529-8.162,24.286,14.919
			c-6.135,11.566-41.132-0.817-40.287,15.224c2.657,51.031,40.585,80.284,76.719,83.858c0,0,10.052,3.49,10.966-3.574
			c1.153-8.909-7.584-7.626-8.302-7.773c-52.128-5.963-68.719-50.136-61.611-64.448c2.953-5.98,11.26-1.802,17.179-2.39
			c5.897-0.592,16.005,1.984,21.926-5.967c5.69-7.164,8.909-22.191-5.921-40.6c-7.712-9.542-26.148-17.803-33.975-10.737
			C119.36,288.69,112.055,298.939,111.465,309.478z"/>
	</g>
</g>
</svg>
